<svg xmlns="http://www.w3.org/2000/svg" viewBox="0 0 59.56 59.56"><defs><style>.a{fill:#f6f6f6;}.b{fill:#82bfbf;}.c{fill:#404141;}</style></defs><title>Contactus</title><circle class="a" cx="29.78" cy="29.78" r="29.78"/><path class="b" d="M128.07,408.86c-5.55,6.43-16.6,3.43-17-5.47s10.7-12.94,16.67-6.67c.7.73,1.82-.38,1.12-1.12-6.91-7.25-19.77-2.63-19.37,7.79.4,10.18,13.2,14.1,19.68,6.59C129.84,409.22,128.73,408.1,128.07,408.86Z" transform="translate(-90.14 -372.94)"/><path class="c" d="M118,398.64c-1,3.06-.14,6.95,2.9,8.5.68.34,1.27-.68.6-1-2.58-1.31-3.16-4.59-2.36-7.17a.59.59,0,0,0-1.14-.31Z" transform="translate(-90.14 -372.94)"/><path class="c" d="M119.56,400.61l-1.45-.22c-.11,0-.46-.15-.45-.26s.07-.45.15-.89c.19-1,.53-1.54,1-1.47l1.34.21a.65.65,0,0,1,.53.75l-.2,1.23a.77.77,0,0,1-.87.65Z" transform="translate(-90.14 -372.94)"/><path class="c" d="M122.82,406.42l-.43.75c-.36.56-.21.68-1,.25l-.93-.47-.76-.57.76-1.3a.69.69,0,0,1,1-.25h0l1.12.64a.7.7,0,0,1,.25.95Z" transform="translate(-90.14 -372.94)"/><path class="c" d="M120.73,413.7a10.67,10.67,0,0,1-.48-21.34h.4a.39.39,0,0,0,0-.78h0c-6.35.21-11.64,5.1-11.62,11.48s5.35,11.24,11.7,11.41a.39.39,0,1,0,0-.77Z" transform="translate(-90.14 -372.94)"/></svg>