<svg xmlns="http://www.w3.org/2000/svg" viewBox="0 0 59.56 59.56"><defs><style>.a{fill:#f6f6f6;}.b{fill:#404141;}.c{fill:#82bfbf;}</style></defs><title>Dashbord</title><circle class="a" cx="29.78" cy="29.78" r="29.78"/><path class="b" d="M128.11,410.56h-8.52l.68.5v-8.31c0-.38-.34-.5-.68-.5h-8.5l.68.5v-8.32l-.8.6h8.5l-.68-.5v8.31c0,.38.36.5.68.5H128l-.68-.5v8.31c0,.79,1.48.59,1.48-.1v-8.3c0-.38-.34-.5-.68-.5h-8.5l.68.5v-8.32c0-.38-.34-.5-.68-.5h-8.5c-.3,0-.8.25-.8.6v8.31c0,.38.36.5.68.5h8.5l-.68-.5v8.31c0,.38.36.5.68.5H128C128.84,411.67,129.1,410.56,128.11,410.56Z" transform="translate(-90.14 -372.94)"/><path class="c" d="M130.19,400.73H124c-.31,0-1.28.17-1.54,0,.38.25.22-.64.22-.93v-6.26l-1.2.5h6.17c.31,0,1.28-.17,1.54,0-.38-.25-.22.64-.22.93v6.26c0,.23,1.46,0,1.46-.39v-7.3c0-.09-.22-.1-.25-.1h-7.75c-.26,0-1.2.11-1.2.5v7.29c0,.08.22.1.25.1h7.77C129.55,401.33,130.88,400.73,130.19,400.73Z" transform="translate(-90.14 -372.94)"/><path class="c" d="M116.37,408.42c-.09,1.57-1.16,3.15-2.93,3a3.15,3.15,0,0,1-2.66-3.16,2.72,2.72,0,0,1,2.57-2.86,2.56,2.56,0,0,1,.62,0,3.21,3.21,0,0,1,2.4,3.15c0,.6,1.51.27,1.46-.39-.29-5.27-8.55-4.8-8.55.32,0,5.33,8.27,4.88,8.55-.2C117.88,407.58,116.4,407.82,116.37,408.42Z" transform="translate(-90.14 -372.94)"/></svg>