<svg xmlns="http://www.w3.org/2000/svg" viewBox="0 0 209.6 209.6"><defs><style>.a{fill:#fcfcfc;}.b{fill:#404141;}.c,.d,.e{fill:none;stroke:#404141;stroke-linecap:round;}.c,.d{stroke-miterlimit:10;}.c{stroke-width:7px;}.d{stroke-width:6px;}.e{stroke-width:3px;}.f{fill:#82bfbf;}</style></defs><title>Dinner</title><path class="a" d="M297.94,316.94a104.8,104.8,0,1,1-104.8,104.8h0A104.81,104.81,0,0,1,297.94,316.94Z" transform="translate(-193.14 -316.94)"/><path class="b" d="M363.93,379.13c2.75,5.84,12.61,28.17,6.43,39.66-1.25,2.34-10.18,11.65-10.18,11.65l.1-5.55s-.78-26.25-.58-37.68S361.18,373.29,363.93,379.13Z" transform="translate(-193.14 -316.94)"/><line class="c" x1="170.2" y1="89.36" x2="170.31" y2="149.73"/><line class="d" x1="35.01" y1="93.83" x2="35.19" y2="149.57"/><line class="e" x1="26.69" y1="80.49" x2="26.69" y2="66.45"/><line class="e" x1="32.34" y1="78.03" x2="32.34" y2="64"/><line class="e" x1="37.95" y1="78.27" x2="37.95" y2="64.24"/><path class="b" d="M228.78,412.64a21.56,21.56,0,0,1-6.57-.83c-.22-.3-1-1.64-1.84-6.23-.18-1.05-.33-2.06-.44-2.93h17c-.1.9-.24,2-.42,3.06-.83,4.87-1.82,6-1.95,6.11A15,15,0,0,1,228.78,412.64Z" transform="translate(-193.14 -316.94)"/><path class="b" d="M222.84,405.15a25.94,25.94,0,0,0,1.12,4.56,25,25,0,0,0,4.82.43,18.35,18.35,0,0,0,4.11-.38,20.3,20.3,0,0,0,1.18-4.61H222.84m-5.7-5h22.53s-.7,12.14-3.89,13.85c-1.5.8-4.23,1.14-7,1.14-3.14,0-6.33-.44-7.81-1.14C218.2,412.68,217.14,400.15,217.14,400.15Z" transform="translate(-193.14 -316.94)"/><line class="e" x1="43.33" y1="80.96" x2="43.33" y2="66.92"/><path class="f" d="M324.39,388.52c23.7,24,10.45,67.11-25.24,68.51-36.46,1.47-51.25-40.06-30.62-66.27,3.94-5-3.1-12.16-7.11-7.08-12.12,15.42-17.43,33.95-9.58,52.85a50.09,50.09,0,0,0,47.31,30.52c44.43-1.37,62.13-55.36,32.32-85.6C326.92,376.83,319.85,383.91,324.39,388.52Z" transform="translate(-193.14 -316.94)"/></svg>