<svg xmlns="http://www.w3.org/2000/svg" viewBox="0 0 209.6 209.6"><defs><style>.a{fill:#fcfcfc;}.b{fill:#84b5b6;}.c{fill:#383939;}</style></defs><title>Geust</title><path class="a" d="M297.94,316.94a104.8,104.8,0,1,1-104.8,104.8h0A104.81,104.81,0,0,1,297.94,316.94Z" transform="translate(-193.14 -316.94)"/><ellipse class="b" cx="82.61" cy="63.07" rx="15.72" ry="16.07"/><path class="c" d="M284.44,476.82C283,479,275.49,479,275.49,479s-7.56,0-9-2.21c-3.08-4.85-6.16-28.54-6.16-28.54a92.18,92.18,0,0,0,15.14,3.35,92.76,92.76,0,0,0,15.17-3.35S287.55,471.88,284.44,476.82Z" transform="translate(-193.14 -316.94)"/><path class="b" d="M271.21,400.24h9a18.08,18.08,0,0,1,18.08,18.08h0v15.05A22.61,22.61,0,0,1,275.72,456h0a22.61,22.61,0,0,1-22.58-22.62V418.32A18.08,18.08,0,0,1,271.21,400.24Z" transform="translate(-193.14 -316.94)"/><ellipse class="b" cx="130.51" cy="74.9" rx="13.83" ry="14.15"/><path class="c" d="M331.29,477.09C330,479,323.41,479,323.41,479s-6.65,0-7.9-1.94c-2.74-4.25-5.44-25.14-5.44-25.14a81.15,81.15,0,0,0,13.34,2.9,81.5,81.5,0,0,0,13.37-2.9S334,472.84,331.29,477.09Z" transform="translate(-193.14 -316.94)"/><path class="b" d="M316.29,409.66h14.54a12.59,12.59,0,0,1,12.58,12.58V443a15.73,15.73,0,0,1-15.73,15.73h-8.22A15.72,15.72,0,0,1,303.74,443V422.24a12.58,12.58,0,0,1,12.58-12.58h0Z" transform="translate(-193.14 -316.94)"/></svg>