<svg xmlns="http://www.w3.org/2000/svg" viewBox="0 0 114.63 105.9"><defs><style>.a,.b{fill:none;stroke-linecap:round;stroke-width:8px;}.a{stroke:#404141;}.b{stroke:#82bfbf;}.c{fill:#404141;}.d{fill:#82bfbf;}</style></defs><title>HomePluss</title><line class="a" x1="56.48" y1="40.43" x2="56.48" y2="77.21"/><line class="a" x1="37.48" y1="58.82" x2="55.48" y2="58.82"/><line class="b" x1="56.48" y1="59.43" x2="56.48" y2="77.43"/><line class="b" x1="56.48" y1="58.82" x2="77.48" y2="58.82"/><path class="c" d="M143,387.48c20.63,20.93,9.1,58.42-22,59.64-31.74,1.28-44.62-34.88-26.66-57.69,3.43-4.36-2.7-10.58-6.19-6.16-10.54,13.42-15.17,29.55-8.34,46A43.59,43.59,0,0,0,121,455.84c38.68-1.19,54.08-48.19,28.13-74.52C145.17,377.31,139,383.47,143,387.48Z" transform="translate(-62.14 -349.95)"/><path class="d" d="M68.7,380.59l26.54-11.28L112.47,362c2-.84,10.61-3.52,7.65-3.66s6.24,3.4,7.64,4L145,369.37l26.57,11c5.2,2.12,7.44-6.31,2.32-8.4l-29.2-12c-7-2.91-18-10.29-25.66-9.94s-18.46,7.67-25.52,10.7l-29.07,12.4c-5.14,2.21-.73,9.71,4.39,7.53Z" transform="translate(-62.14 -349.95)"/></svg>