<svg xmlns="http://www.w3.org/2000/svg" viewBox="0 0 59.56 59.56"><defs><style>.a{fill:#f6f6f6;}.b{fill:#404141;}.c{fill:#82bfbf;}</style></defs><title>Home</title><circle class="a" cx="29.78" cy="29.78" r="29.78"/><path class="b" d="M125.07,399.83c4.42,4.48,2,12.51-4.7,12.77s-9.55-7.46-5.7-12.35c.73-.93-.58-2.26-1.33-1.32-2.26,2.88-3.25,6.33-1.78,9.85a9.32,9.32,0,0,0,8.81,5.69c8.28-.26,11.58-10.32,6-16A.94.94,0,0,0,125.07,399.83Z" transform="translate(-90.14 -372.94)"/><path class="c" d="M109.18,398.36l5.68-2.42,3.69-1.57c.43-.18,2.27-.75,1.63-.78s1.34.72,1.64.85l3.69,1.52,5.69,2.34c1.11.46,1.59-1.35.5-1.8l-6.26-2.57c-1.48-.62-3.84-2.2-5.49-2.13s-4,1.64-5.46,2.29l-6.23,2.66c-1.1.47-.15,2.07.94,1.61Z" transform="translate(-90.14 -372.94)"/></svg>