<svg xmlns="http://www.w3.org/2000/svg" viewBox="0 0 376.51 427.95"><defs><style>.a{fill:#82bfbf;}.b{fill:#1d1e1b;}.c{fill:#77acd9;}.d{fill:#b5d5ed;}.e{fill:#84b5b6;}.f{fill:#5b7e7e;}.g{fill:#415e80;}</style></defs><title>lgoo</title><path class="a" d="M121.54,605.64h-3.48v-28.9q0-20.55-13.91-20.5a18.79,18.79,0,0,0-6.87,1.3A24.16,24.16,0,0,0,91,561.11a25.84,25.84,0,0,0-5,5.43,23.53,23.53,0,0,0-3.15,6.73v32.46H79.38V533h3.48v34.09a25.61,25.61,0,0,1,4-5.66,28.5,28.5,0,0,1,5.24-4.31,23,23,0,0,1,6-2.79,21.28,21.28,0,0,1,6.58-1,14.39,14.39,0,0,1,12.8,6.08,31.1,31.1,0,0,1,4.09,17.26Z" transform="translate(-79.38 -178.68)"/><path class="b" d="M159.44,606.61a23.27,23.27,0,0,1-10.06-2.13,25.84,25.84,0,0,1-13.59-14.29A27.59,27.59,0,0,1,141.26,561a26.25,26.25,0,0,1,8.16-5.84,24.17,24.17,0,0,1,10-2,24.54,24.54,0,0,1,10,2.14,25.71,25.71,0,0,1,8.16,5.84,27.53,27.53,0,0,1,0,37.71,26.26,26.26,0,0,1-8.16,5.75,23.66,23.66,0,0,1-10,2ZM137.32,580a23.6,23.6,0,0,0,1.76,9.05,24,24,0,0,0,4.64,7.47,22.3,22.3,0,0,0,7,5.05,20.8,20.8,0,0,0,8.58,1.86,20.19,20.19,0,0,0,8.54-1.9,22.9,22.9,0,0,0,7-5.1,25.07,25.07,0,0,0,4.64-7.52,24.45,24.45,0,0,0,0-18.23,25.15,25.15,0,0,0-4.64-7.51,22.94,22.94,0,0,0-7-5.06,19.92,19.92,0,0,0-17,0,22.5,22.5,0,0,0-7,5.1,24.71,24.71,0,0,0-4.64,7.61,23.48,23.48,0,0,0-2.09,9.18Z" transform="translate(-79.38 -178.68)"/><path class="b" d="M198.17,533h3.38v63.82a5.89,5.89,0,0,0,1.81,4.64,6.78,6.78,0,0,0,4.64,1.72,22.85,22.85,0,0,0,2.74-.24,13.57,13.57,0,0,0,2.87-.79l.84,2.83a30.19,30.19,0,0,1-3.85.88,21.73,21.73,0,0,1-3.94.38,8.56,8.56,0,0,1-6.27-2.32,8.38,8.38,0,0,1-2.41-6.31Z" transform="translate(-79.38 -178.68)"/><path class="b" d="M221.78,541.31V533h3.48v8.35Zm0,64.33V553.83h3.48v51.81Z" transform="translate(-79.38 -178.68)"/><path class="b" d="M263.67,606.61a23.18,23.18,0,0,1-10.26-2.27,26.12,26.12,0,0,1-8.11-6,27.47,27.47,0,0,1-7.24-18.55,28.27,28.27,0,0,1,1.86-10.25,27,27,0,0,1,5.1-8.58,24.07,24.07,0,0,1,7.79-5.85,22.76,22.76,0,0,1,16.56-1.2,22.4,22.4,0,0,1,5.84,2.73,29,29,0,0,1,4.87,4,32.47,32.47,0,0,1,3.8,4.64V532.82h3.48v67.3c0,1.44.65,2.18,1.86,2.18v3.2h-.93a3.93,3.93,0,0,1-3-1.35,4.3,4.3,0,0,1-1.21-2.92v-6.35a25.22,25.22,0,0,1-3.94,4.63,27,27,0,0,1-5,3.67,26.33,26.33,0,0,1-5.66,2.32,21.53,21.53,0,0,1-5.89,1.11Zm.37-3.15a19.13,19.13,0,0,0,6.35-1.21A26.34,26.34,0,0,0,276.7,599a21.06,21.06,0,0,0,4.92-4.64,11.79,11.79,0,0,0,2.27-5.71V570.81a18.19,18.19,0,0,0-3.39-5.61,25,25,0,0,0-5.05-4.64,24.12,24.12,0,0,0-6-3.06,17.91,17.91,0,0,0-6.27-1.16,19.37,19.37,0,0,0-8.9,2,21,21,0,0,0-6.82,5.38,24,24,0,0,0-4.36,7.56,25.7,25.7,0,0,0-1.53,8.72A23.1,23.1,0,0,0,243.3,589a23.75,23.75,0,0,0,12,12.66,19.93,19.93,0,0,0,8.77,1.85Z" transform="translate(-79.38 -178.68)"/><path class="b" d="M317.15,606.61a18.34,18.34,0,0,1-6.87-1.25,16.71,16.71,0,0,1-5.52-3.38,14.75,14.75,0,0,1-3.71-5,15,15,0,0,1-1.3-6.26,11.29,11.29,0,0,1,1.62-6A15.67,15.67,0,0,1,306,580a22.82,22.82,0,0,1,7-3.11,36,36,0,0,1,8.95-1.07,60.32,60.32,0,0,1,9,.7,39.41,39.41,0,0,1,8.21,2.09v-5.57a17.08,17.08,0,0,0-4.64-12.43A16.57,16.57,0,0,0,322.25,556a23.13,23.13,0,0,0-8.26,1.62,43.36,43.36,0,0,0-8.81,4.64l-1.67-2.5a35.5,35.5,0,0,1,18.74-6.63,18.52,18.52,0,0,1,20.08,20.13v27.09c0,1.44.6,2.18,1.81,2.18v3.2h-.79a4.13,4.13,0,0,1-3-1.26,4,4,0,0,1-1.3-3v-4.64a22.83,22.83,0,0,1-9.28,7.19A30.92,30.92,0,0,1,317.15,606.61Zm.51-2.87a29.34,29.34,0,0,0,11.73-2.32,17.91,17.91,0,0,0,8-6.36,6.4,6.4,0,0,0,1.67-4v-9.74a47.54,47.54,0,0,0-17-3,25.28,25.28,0,0,0-13.68,3.29,10.21,10.21,0,0,0-5.15,9,11.88,11.88,0,0,0,1.11,5.15,13.36,13.36,0,0,0,7.56,7,15.83,15.83,0,0,0,5.57,1Z" transform="translate(-79.38 -178.68)"/><path class="c" d="M353.37,602.86l39.19-46.11H354v-2.92h42.68v2.83l-39.1,46.06h38.77v2.92H353.37Z" transform="translate(-79.38 -178.68)"/><path class="b" d="M430.32,606.61a24.07,24.07,0,0,1-10.16-2.13A27,27,0,0,1,406.44,590a28.66,28.66,0,0,1,0-20.78A26.16,26.16,0,0,1,420,555.27a24,24,0,0,1,10-2.09,24.78,24.78,0,0,1,10.11,2.09,25.61,25.61,0,0,1,8.21,5.75,28.05,28.05,0,0,1,5.52,8.49,27.06,27.06,0,0,1,2,10.39,5.21,5.21,0,0,1,0,.79c0,.23,0,.47,0,.7H408a23.69,23.69,0,0,0,2.23,8.9,24.42,24.42,0,0,0,5,7.1,23.38,23.38,0,0,0,6.91,4.64,20.29,20.29,0,0,0,8.3,1.77,21.46,21.46,0,0,0,5.75-.75,21.88,21.88,0,0,0,5.29-2.13,19.43,19.43,0,0,0,4.32-3.34,20,20,0,0,0,3-4.22l3.16.79a16.4,16.4,0,0,1-3.34,5,21.53,21.53,0,0,1-5.06,4,27.76,27.76,0,0,1-6.21,2.6,27.22,27.22,0,0,1-7,.88Zm22-28.24a26.4,26.4,0,0,0-2.14-9,24.3,24.3,0,0,0-4.87-7,22.34,22.34,0,0,0-6.91-4.64,21.77,21.77,0,0,0-8.4-1.62,20.93,20.93,0,0,0-8.4,1.67,22.53,22.53,0,0,0-6.86,4.64,22.9,22.9,0,0,0-4.64,7,25.73,25.73,0,0,0-2.09,8.9Z" transform="translate(-79.38 -178.68)"/><circle class="d" cx="145.41" cy="202.23" r="25.05"/><circle class="e" cx="222.18" cy="22.45" r="22.45"/><circle class="f" cx="122.22" cy="99.82" r="18.88"/><circle class="g" cx="263.69" cy="170.51" r="28.2"/></svg>