<svg xmlns="http://www.w3.org/2000/svg" viewBox="0 0 210.6 41.32"><defs><style>.a{fill:#82bfbf;}.b{fill:#1d1e1b;}.c{fill:#77acd9;}</style></defs><title>Nav-logo-v2</title><path class="a" d="M23.63,52.73h-2V36.55q0-11.49-7.79-11.47a10.52,10.52,0,0,0-3.84.73,13.51,13.51,0,0,0-3.5,2,14.24,14.24,0,0,0-2.8,3,13.06,13.06,0,0,0-1.76,3.76V52.73H0V12.08H1.93V31.15A14.75,14.75,0,0,1,4.19,28a16.31,16.31,0,0,1,2.94-2.43A13.29,13.29,0,0,1,10.51,24a12.09,12.09,0,0,1,3.68-.57,8,8,0,0,1,7.16,3.4,17.42,17.42,0,0,1,2.28,9.65Z" transform="translate(0.01 -12)"/><path class="b" d="M44.78,53.28a13.34,13.34,0,0,1-5.63-1.19,14.47,14.47,0,0,1-7.6-8,15.42,15.42,0,0,1,3.08-16.31,14.51,14.51,0,0,1,4.56-3.27,13.31,13.31,0,0,1,5.6-1.14,13.67,13.67,0,0,1,5.6,1.19A14.4,14.4,0,0,1,55,27.83a15.42,15.42,0,0,1,0,21.09,14.52,14.52,0,0,1-4.57,3.22,13.31,13.31,0,0,1-5.6,1.14ZM32.4,38.41a13.27,13.27,0,0,0,1,5.06A13.5,13.5,0,0,0,36,47.65a12.48,12.48,0,0,0,3.92,2.83,11.67,11.67,0,0,0,4.8,1,11.07,11.07,0,0,0,4.77-1.06,12.63,12.63,0,0,0,3.94-2.85,14.06,14.06,0,0,0,2.6-4.2,13.73,13.73,0,0,0,0-10.2,13.94,13.94,0,0,0-2.6-4.2,12.89,12.89,0,0,0-3.91-2.83,11.13,11.13,0,0,0-9.5,0A12.7,12.7,0,0,0,36.09,29a14,14,0,0,0-2.59,4.26,13.25,13.25,0,0,0-1.17,5.14Z" transform="translate(0.01 -12)"/><path class="b" d="M66.44,12.08h1.89v35.7a3.26,3.26,0,0,0,1,2.59,3.76,3.76,0,0,0,2.59,1,11.28,11.28,0,0,0,1.53-.13,7.53,7.53,0,0,0,1.61-.44l.47,1.58a17.79,17.79,0,0,1-2.16.5,13.54,13.54,0,0,1-2.2.21,4.76,4.76,0,0,1-3.5-1.3,4.65,4.65,0,0,1-1.35-3.53Z" transform="translate(0.01 -12)"/><path class="b" d="M79.63,16.75V12.08h2v4.67Zm0,36v-29h2v29Z" transform="translate(0.01 -12)"/><path class="b" d="M103.07,53.28A12.92,12.92,0,0,1,97.34,52a14.62,14.62,0,0,1-4.54-3.37,15.38,15.38,0,0,1-4-10.38,15.76,15.76,0,0,1,1-5.73,15.08,15.08,0,0,1,2.85-4.8A13.34,13.34,0,0,1,97,24.46a12.82,12.82,0,0,1,12.53.85,16.4,16.4,0,0,1,2.73,2.26,18.24,18.24,0,0,1,2.12,2.6V12h2V49.65c0,.8.36,1.21,1,1.21v1.79h-.52a2.16,2.16,0,0,1-1.66-.75,2.42,2.42,0,0,1-.67-1.63V46.71a14.09,14.09,0,0,1-2.21,2.6,14.67,14.67,0,0,1-2.78,2,15,15,0,0,1-3.16,1.3,12,12,0,0,1-3.3.62Zm.21-1.76a10.55,10.55,0,0,0,3.55-.68A14.73,14.73,0,0,0,110.36,49a11.71,11.71,0,0,0,2.75-2.6,6.51,6.51,0,0,0,1.27-3.19v-10a10.36,10.36,0,0,0-1.89-3.14,13.62,13.62,0,0,0-2.86-2.55,12.89,12.89,0,0,0-3.37-1.71,9.74,9.74,0,0,0-3.5-.65,11,11,0,0,0-5,1.14,11.49,11.49,0,0,0-3.81,3,13.31,13.31,0,0,0-2.44,4.22,14.25,14.25,0,0,0-.86,4.88,13,13,0,0,0,1,5,13.26,13.26,0,0,0,6.69,7.09,11.18,11.18,0,0,0,4.9,1Z" transform="translate(0.01 -12)"/><path class="b" d="M133,53.28a10.53,10.53,0,0,1-3.84-.7,9.34,9.34,0,0,1-3.08-1.9,8.08,8.08,0,0,1-2.08-2.8,8.26,8.26,0,0,1-.72-3.5,6.34,6.34,0,0,1,.9-3.37,8.68,8.68,0,0,1,2.6-2.59,12.62,12.62,0,0,1,3.89-1.74,20,20,0,0,1,5-.6,32.2,32.2,0,0,1,5,.39,21.33,21.33,0,0,1,4.59,1.17V34.55a9.55,9.55,0,0,0-2.59-7A9.28,9.28,0,0,0,135.8,25a13.06,13.06,0,0,0-4.62.91,23.71,23.71,0,0,0-4.93,2.6l-.93-1.4a19.81,19.81,0,0,1,10.48-3.71A10.36,10.36,0,0,1,147,32.76v0a9.22,9.22,0,0,1,0,1.82V49.76c0,.8.34,1.22,1,1.22v1.79h-.4a2.35,2.35,0,0,1-1.68-.7,2.22,2.22,0,0,1-.73-1.69V47.79a12.77,12.77,0,0,1-5.19,4A17.46,17.46,0,0,1,133,53.28Zm.29-1.61a16.41,16.41,0,0,0,6.56-1.3,10.11,10.11,0,0,0,4.47-3.55,3.69,3.69,0,0,0,.93-2.23V39.14a26.78,26.78,0,0,0-9.5-1.66,14.22,14.22,0,0,0-7.65,1.84,5.7,5.7,0,0,0-2.88,5,6.67,6.67,0,0,0,.62,2.88,7.46,7.46,0,0,0,4.23,3.89,8.7,8.7,0,0,0,3.11.57Z" transform="translate(0.01 -12)"/><path class="c" d="M153.25,51.18l21.92-25.79H153.63V23.75H177.5v1.59L155.63,51.1h21.69v1.63h-24Z" transform="translate(0.01 -12)"/><path class="b" d="M196.29,53.28a13.39,13.39,0,0,1-5.68-1.2A15,15,0,0,1,182.93,44a16,16,0,0,1,0-11.62,14.64,14.64,0,0,1,7.57-7.79,13.48,13.48,0,0,1,5.6-1.16,13.76,13.76,0,0,1,5.66,1.16,14.18,14.18,0,0,1,4.59,3.22,15.57,15.57,0,0,1,3.09,4.75,15.23,15.23,0,0,1,1.14,5.81,3.23,3.23,0,0,1,0,.44,2.54,2.54,0,0,0,0,.39H183.81a13.15,13.15,0,0,0,1.24,5,13.56,13.56,0,0,0,2.78,4,12.9,12.9,0,0,0,3.86,2.59,11.3,11.3,0,0,0,4.65,1,11.65,11.65,0,0,0,3.21-.42,12,12,0,0,0,3-1.19A10.4,10.4,0,0,0,205,48.27a10.87,10.87,0,0,0,1.67-2.42l1.77.44a9.28,9.28,0,0,1-1.87,2.8,11.76,11.76,0,0,1-2.83,2.23,14.18,14.18,0,0,1-7.37,2Zm12.3-15.8a14.88,14.88,0,0,0-1.2-5,13.82,13.82,0,0,0-2.76-3.93A12.82,12.82,0,0,0,200.76,26a12.22,12.22,0,0,0-4.7-.91,11.88,11.88,0,0,0-4.7.94,12.68,12.68,0,0,0-3.84,2.59,13.27,13.27,0,0,0-2.59,3.94,14.38,14.38,0,0,0-1.17,5Z" transform="translate(0.01 -12)"/></svg>