<svg xmlns="http://www.w3.org/2000/svg" viewBox="0 0 92.74 92.74"><defs><style>.a{fill:#fbfbfb;}.b{fill:#82bfbf;}</style></defs><title>favicon.2</title><rect class="a" width="92.74" height="92.74" rx="46.37"/><path class="b" d="M298.44,315.63h-2.33V296.2q0-13.83-9.37-13.8a12.55,12.55,0,0,0-4.61.88,15.83,15.83,0,0,0-4.21,2.4,17.17,17.17,0,0,0-3.37,3.65,15.86,15.86,0,0,0-2.13,4.52V315.7h-2.34v-49h2.34v22.93a17.24,17.24,0,0,1,2.72-3.8,19.26,19.26,0,0,1,3.52-2.91,16.08,16.08,0,0,1,4.06-1.87,14.18,14.18,0,0,1,4.43-.68,9.63,9.63,0,0,1,8.61,4.09,20.93,20.93,0,0,1,2.75,11.6Z" transform="translate(-236.94 -246.85)"/></svg>