<svg xmlns="http://www.w3.org/2000/svg" viewBox="0 0 92.74 92.74"><defs><style>.a{fill:#313640;}.b{fill:#82bfbf;}</style></defs><title>FavIcon</title><rect class="a" width="92.74" height="92.74" rx="46.37"/><path class="b" d="M298.44,315.63h-2.33V296.2q0-13.83-9.37-13.8a12.55,12.55,0,0,0-4.61.88,15.83,15.83,0,0,0-4.21,2.4,17.17,17.17,0,0,0-3.37,3.65,15.86,15.86,0,0,0-2.13,4.52V315.7h-2.34v-49h2.34v22.93a17.24,17.24,0,0,1,2.72-3.8,19.26,19.26,0,0,1,3.52-2.91,16.08,16.08,0,0,1,4.06-1.87,14.18,14.18,0,0,1,4.43-.68,9.63,9.63,0,0,1,8.61,4.09,20.93,20.93,0,0,1,2.75,11.6Z" transform="translate(-236.94 -246.85)"/><path class="b" d="M298.44,314.38h-2.33l1.25,1.25c0-6.16,0-12.33,0-18.49-.05-6.72-1.36-15.22-9.55-15.94-8.49-.75-16.64,6.82-16.64,15.19V315.7l1.25-1.25h-2.34l1.25,1.25v-49L270.08,268h2.34l-1.25-1.25v22.93a1.26,1.26,0,0,0,2.33.63c4-6.85,16.27-13.56,21.49-4.19,2.25,4,2.27,8.24,2.26,12.69l-.06,16.83a1.25,1.25,0,0,0,2.5,0c0-7.63.86-15.73-.07-23.32-.78-6.33-4-12.57-11-13.15-7.26-.6-13.71,3.83-17.25,9.88l2.33.63V266.74a1.27,1.27,0,0,0-1.25-1.25h-2.34a1.27,1.27,0,0,0-1.25,1.25v49a1.28,1.28,0,0,0,1.25,1.25h2.34a1.27,1.27,0,0,0,1.25-1.25V301.35a52.6,52.6,0,0,1,0-7c.86-6.2,8.65-11.79,14.82-10.57,7.33,1.45,6.37,11.24,6.37,17v14.82a1.26,1.26,0,0,0,1.25,1.25h2.33A1.25,1.25,0,0,0,298.44,314.38Z" transform="translate(-236.94 -246.85)"/></svg>